<?xml version="1.0" encoding="UTF-8" standalone="no"?>
<!DOCTYPE svg PUBLIC "-//W3C//DTD SVG 1.1//EN" "http://www.w3.org/Graphics/SVG/1.1/DTD/svg11.dtd">
<svg xmlns="http://www.w3.org/2000/svg" xmlns:xlink="http://www.w3.org/1999/xlink" version="1.1" width="460.59999pt" height="662.56pt" viewBox="0 0 460.59999 662.56">
<g enable-background="new">
<symbol id="font_0_37">
<path d="M .54833987 .6621094 L .55566409 .50683596 L .5371094 .50683596 C .5335286 .5341797 .5286458 .55371096 .52246096 .5654297 C .5123698 .5843099 .4988607 .59814456 .4819336 .6069336 C .46533204 .61604818 .44335938 .62060549 .41601563 .62060549 L .3227539 .62060549 L .3227539 .114746097 C .3227539 .07405599 .32714845 .048665365 .3359375 .03857422 C .34830729 .024902344 .36735026 .018066407 .3930664 .018066407 L .41601563 .018066407 L .41601563 0 L .1352539 0 L .1352539 .018066407 L .1586914 .018066407 C .1866862 .018066407 .20654297 .026529948 .21826172 .04345703 C .22542317 .0538737 .2290039 .07763672 .2290039 .114746097 L .2290039 .62060549 L .14941406 .62060549 C .118489589 .62060549 .09651693 .61832687 .083496097 .61376956 C .06656901 .60758468 .052083333 .5957031 .040039064 .578125 C .027994791 .5605469 .020833334 .5367839 .018554688 .50683596 L 0 .50683596 L .0078125 .6621094 L .54833987 .6621094 Z "/>
</symbol>
<symbol id="font_0_4b">
<path d="M .15625 .69433596 L .15625 .3671875 C .19238281 .40690104 .22102864 .43229167 .2421875 .44335938 C .26334635 .4547526 .28450523 .46044923 .30566407 .46044923 C .3310547 .46044923 .3528646 .45345054 .37109376 .43945313 C .3893229 .42545573 .40283204 .40348307 .4116211 .37353517 C .417806 .3527018 .42089845 .31461589 .42089845 .25927735 L .42089845 .10107422 C .42089845 .072753909 .4231771 .053385419 .42773438 .04296875 C .4309896 .03515625 .43652345 .028971354 .44433595 .024414063 C .45214845 .019856772 .46647135 .017578125 .4873047 .017578125 L .4873047 0 L .26757813 0 L .26757813 .017578125 L .27783204 .017578125 C .29866538 .017578125 .31315104 .020670573 .32128907 .026855469 C .3294271 .033365888 .3351237 .04280599 .3383789 .05517578 C .33935548 .060384115 .33984376 .075683597 .33984376 .10107422 L .33984376 .25927735 C .33984376 .30810548 .3372396 .34016929 .33203126 .35546876 C .32714845 .37076823 .3191732 .38216148 .30810548 .38964845 C .29703776 .39746095 .2836914 .4013672 .2680664 .4013672 C .25211589 .4013672 .23551433 .3971354 .21826172 .38867188 C .20100911 .38020835 .18033855 .3631185 .15625 .33740235 L .15625 .10107422 C .15625 .07047526 .15787761 .051432294 .16113281 .043945314 C .16471355 .036458333 .1710612 .030110678 .18017578 .024902344 C .18961589 .020019532 .20572917 .017578125 .22851563 .017578125 L .22851563 0 L .0068359377 0 L .0068359377 .017578125 C .026692709 .017578125 .042317708 .020670573 .053710939 .026855469 C .060221357 .030110678 .06542969 .036295576 .06933594 .045410158 C .07324219 .05452474 .07519531 .07307943 .07519531 .10107422 L .07519531 .5058594 C .07519531 .5569661 .07389323 .5883789 .07128906 .60009768 C .069010417 .6118164 .06526693 .6197917 .060058595 .62402346 C .05517578 .6282552 .048502607 .6303711 .040039064 .6303711 C .033203126 .6303711 .022135416 .6277669 .0068359377 .6225586 L 0 .63964846 L .13378906 .69433596 L .15625 .69433596 Z "/>
</symbol>
<symbol id="font_0_4c">
<path d="M .115722659 .69433596 C .12939453 .69433596 .14095052 .6894531 .15039063 .6796875 C .16015625 .6702474 .16503906 .6586914 .16503906 .64501956 C .16503906 .63134768 .16015625 .6196289 .15039063 .6098633 C .14095052 .60009768 .12939453 .59521487 .115722659 .59521487 C .10205078 .59521487 .09033203 .60009768 .080566409 .6098633 C .07080078 .6196289 .06591797 .63134768 .06591797 .64501956 C .06591797 .6586914 .07063802 .6702474 .080078128 .6796875 C .08984375 .6894531 .10172526 .69433596 .115722659 .69433596 M .15625 .46044923 L .15625 .10107422 C .15625 .07307943 .15820313 .05436198 .16210938 .044921876 C .16634114 .035807294 .17236328 .028971354 .18017578 .024414063 C .1883138 .019856772 .20296224 .017578125 .2241211 .017578125 L .2241211 0 L .0068359377 0 L .0068359377 .017578125 C .028645834 .017578125 .04329427 .01969401 .05078125 .023925782 C .05826823 .028157553 .0641276 .03515625 .068359378 .044921876 C .072916667 .0546875 .07519531 .073404949 .07519531 .10107422 L .07519531 .2734375 C .07519531 .3219401 .07373047 .35335288 .07080078 .36767579 C .06852213 .37809245 .064941409 .3852539 .060058595 .38916017 C .05517578 .39339195 .048502607 .3955078 .040039064 .3955078 C .030924479 .3955078 .019856772 .3930664 .0068359377 .3881836 L 0 .40576173 L .13476563 .46044923 L .15625 .46044923 Z "/>
</symbol>
<symbol id="font_0_56">
<path d="M .27148438 .4741211 L .27148438 .32177735 L .2553711 .32177735 C .2430013 .3696289 .22705078 .402181 .20751953 .4194336 C .1883138 .4366862 .16373699 .4453125 .13378906 .4453125 C .1110026 .4453125 .09261068 .43929038 .07861328 .4272461 C .06461588 .4152018 .057617189 .40185548 .057617189 .38720704 C .057617189 .36897788 .06282552 .35335288 .07324219 .34033204 C .083333339 .3269857 .10384115 .31282554 .13476563 .29785157 L .20605469 .2631836 C .2721354 .23095703 .30517579 .18847656 .30517579 .13574219 C .30517579 .095052089 .28971354 .06217448 .25878907 .037109376 C .22819011 .012369792 .19384766 0 .15576172 0 C .12841797 0 .09716797 .0048828127 .06201172 .0146484379 C .05126953 .017903647 .04248047 .01953125 .03564453 .01953125 C .028157553 .01953125 .022298178 .0152994799 .018066407 .0068359377 L .001953125 .0068359377 L .001953125 .1665039 L .018066407 .1665039 C .02718099 .12093099 .044596357 .08658854 .0703125 .06347656 C .09602865 .040364583 .12483724 .028808594 .15673828 .028808594 C .17919922 .028808594 .19742839 .03531901 .21142578 .048339845 C .2257487 .0616862 .23291016 .07763672 .23291016 .096191409 C .23291016 .118652347 .22493489 .13753255 .20898438 .15283203 C .19335938 .16813152 .16194661 .1875 .114746097 .2109375 C .06754557 .234375 .036621095 .25553385 .021972657 .27441407 C .0073242189 .29296876 0 .31640626 0 .34472657 C 0 .3815104 .012532552 .41227214 .037597658 .43701173 C .06298828 .4617513 .095703128 .4741211 .13574219 .4741211 C .15332031 .4741211 .17464192 .4703776 .19970703 .46289063 C .2163086 .4580078 .2273763 .4555664 .23291016 .4555664 C .23811849 .4555664 .2421875 .45670573 .24511719 .45898438 C .24804688 .46126304 .25146485 .4663086 .2553711 .4741211 L .27148438 .4741211 Z "/>
</symbol>
<symbol id="font_0_3">
<path d="M 0 0 Z "/>
</symbol>
<symbol id="font_0_53">
<path d="M .0024414063 .6166992 L .14013672 .6723633 L .1586914 .6723633 L .1586914 .5678711 C .18180339 .6072591 .20491536 .6347656 .22802735 .6503906 C .25146485 .6663411 .27604167 .6743164 .3017578 .6743164 C .3466797 .6743164 .3841146 .6567383 .4140625 .62158206 C .45084635 .5786133 .46923829 .5226237 .46923829 .45361329 C .46923829 .37646485 .44710288 .31266276 .40283204 .26220704 C .3663737 .22086589 .32047526 .20019531 .26513673 .20019531 C .24104817 .20019531 .22021485 .20361328 .20263672 .21044922 C .18961589 .21533203 .17496746 .22509766 .1586914 .2397461 L .1586914 .103515628 C .1586914 .072916667 .16048177 .053548177 .1640625 .045410158 C .16796875 .036946615 .17447917 .030273438 .18359375 .025390625 C .19303386 .020507813 .20996094 .018066407 .234375 .018066407 L .234375 0 L 0 0 L 0 .018066407 L .012207031 .018066407 C .030110678 .017740885 .045410158 .021158854 .05810547 .028320313 C .06429037 .031901044 .069010417 .037760419 .072265628 .045898439 C .07584635 .053710939 .07763672 .07389323 .07763672 .10644531 L .07763672 .5292969 C .07763672 .55826827 .07633463 .57666018 .07373047 .58447268 C .071126308 .59228518 .06689453 .59814456 .061035158 .6020508 C .0555013 .60595706 .047851564 .60791018 .038085939 .60791018 C .030273438 .60791018 .020345053 .60563156 .008300781 .6010742 L .0024414063 .6166992 M .1586914 .5390625 L .1586914 .3720703 C .1586914 .3359375 .16015625 .31217448 .16308594 .30078126 C .16764324 .28190104 .17871094 .26529948 .19628906 .25097657 C .2141927 .23665364 .23665364 .22949219 .26367188 .22949219 C .29622398 .22949219 .32259117 .2421875 .34277345 .26757813 C .36914063 .30078126 .38232423 .3474935 .38232423 .40771485 C .38232423 .47607423 .36735026 .5286458 .33740235 .5654297 C .316569 .5908203 .29182945 .6035156 .2631836 .6035156 C .2475586 .6035156 .23209636 .5996094 .21679688 .5917969 C .20507813 .5859375 .18570964 .5683594 .1586914 .5390625 Z "/>
</symbol>
<symbol id="font_0_44">
<path d="M .24902344 .07373047 C .203125 .0382487 .1743164 .017740885 .16259766 .012207031 C .14501953 .0040690104 .12630208 0 .10644531 0 C .075520839 0 .04996745 .010579427 .029785157 .03173828 C .009928386 .052897138 0 .080729167 0 .115234378 C 0 .13704427 .0048828127 .15592449 .0146484379 .171875 C .027994791 .19401042 .05110677 .21484375 .083984378 .234375 C .1171875 .25390626 .17220052 .27766929 .24902344 .30566407 L .24902344 .3232422 C .24902344 .36783854 .24186199 .3984375 .22753906 .41503907 C .21354167 .43164063 .19303386 .4399414 .16601563 .4399414 C .14550781 .4399414 .12923177 .43440757 .1171875 .42333985 C .10481771 .41227214 .09863281 .3995768 .09863281 .3852539 L .099609378 .3569336 C .099609378 .34195964 .095703128 .33040367 .087890628 .32226563 C .08040365 .3141276 .07047526 .3100586 .05810547 .3100586 C .0460612 .3100586 .036132814 .31429038 .028320313 .3227539 C .020833334 .33121745 .017089844 .34277345 .017089844 .35742188 C .017089844 .38541667 .03141276 .4111328 .060058595 .4345703 C .08870443 .4580078 .12890625 .46972657 .18066406 .46972657 C .22037761 .46972657 .2529297 .46305339 .2783203 .44970704 C .29752604 .43961589 .3116862 .42382813 .32080079 .40234376 C .32666017 .38834635 .32958985 .35970054 .32958985 .31640626 L .32958985 .16455078 C .32958985 .121907558 .33040367 .095703128 .33203126 .0859375 C .33365885 .0764974 .33626304 .07014974 .33984376 .06689453 C .34375 .06363932 .34814454 .06201172 .35302735 .06201172 C .3582357 .06201172 .36279298 .06315104 .36669923 .06542969 C .37353517 .06966146 .38671876 .08154297 .40625 .10107422 L .40625 .07373047 C .36979167 .024902344 .33496095 .00048828127 .3017578 .00048828127 C .28580729 .00048828127 .27311198 .0060221354 .26367188 .017089844 C .25423179 .028157553 .24934896 .04703776 .24902344 .07373047 M .24902344 .10546875 L .24902344 .2758789 C .1998698 .25634767 .16813152 .24251302 .1538086 .234375 C .12809246 .22005208 .10970052 .20507813 .09863281 .18945313 C .0875651 .17382813 .08203125 .15673828 .08203125 .1381836 C .08203125 .114746097 .089029949 .095214847 .103027347 .079589847 C .11702474 .06429037 .13313802 .056640626 .15136719 .056640626 C .17610677 .056640626 .20865886 .072916667 .24902344 .10546875 Z "/>
</symbol>
<symbol id="font_0_4a">
<path d="M .12109375 .37890626 C .09375 .3922526 .072753909 .41080729 .05810547 .4345703 C .04345703 .45865885 .036132814 .4851888 .036132814 .51416018 C .036132814 .55843099 .052734376 .5965169 .0859375 .62841799 C .11946615 .66031906 .16227214 .67626956 .21435547 .67626956 C .2569987 .67626956 .2939453 .66585287 .3251953 .64501956 L .41992188 .64501956 C .43391929 .64501956 .44205729 .64453127 .44433595 .6435547 C .4466146 .6429036 .4482422 .64160159 .44921876 .63964846 C .45117188 .63671877 .45214845 .63151046 .45214845 .62402346 C .45214845 .6155599 .45133464 .6097005 .44970704 .6064453 C .44873048 .6048177 .4469401 .6035156 .44433595 .60253909 C .44205729 .6015625 .43391929 .6010742 .41992188 .6010742 L .3618164 .6010742 C .38004557 .5776367 .38916017 .5476888 .38916017 .51123049 C .38916017 .4695638 .37320964 .43391929 .3413086 .40429688 C .30940757 .37467448 .26660157 .35986329 .21289063 .35986329 C .1907552 .35986329 .16813152 .3631185 .14501953 .3696289 C .13069661 .35725913 .12093099 .34635417 .115722659 .33691407 C .110839847 .32779948 .10839844 .31998698 .10839844 .31347657 C .10839844 .30794273 .1110026 .30257163 .11621094 .29736329 C .12174479 .29215495 .13232422 .28841148 .14794922 .2861328 C .1570638 .28483073 .17985027 .2836914 .2163086 .28271485 C .28336589 .28108726 .3268229 .2788086 .3466797 .2758789 C .37695313 .27164714 .40104167 .26041667 .4189453 .2421875 C .43717448 .22395833 .44628907 .20149739 .44628907 .17480469 C .44628907 .13802083 .42903648 .103515628 .39453126 .07128906 C .34375 .023763022 .2775065 0 .19580078 0 C .13297527 0 .07991537 .014160156 .036621095 .04248047 C .012207031 .05875651 0 .075683597 0 .09326172 C 0 .10107422 .0017903646 .10888672 .0053710939 .11669922 C .010904948 .12874349 .022298178 .14550781 .03955078 .16699219 C .041829427 .16992188 .05843099 .1875 .08935547 .21972656 C .07242838 .2298177 .060384115 .23876953 .053222658 .24658203 C .04638672 .25472007 .04296875 .26383464 .04296875 .27392579 C .04296875 .285319 .047526044 .29866538 .056640626 .31396485 C .06608073 .3292643 .0875651 .35091148 .12109375 .37890626 M .20605469 .65283206 C .18196614 .65283206 .16178386 .6432292 .14550781 .62402346 C .12923177 .6048177 .12109375 .5753581 .12109375 .53564456 C .12109375 .48421226 .13216146 .44433595 .15429688 .41601563 C .17122396 .39453126 .19270833 .38378907 .21875 .38378907 C .24348958 .38378907 .26383464 .3930664 .27978517 .4116211 C .2957357 .43017579 .30371095 .4593099 .30371095 .49902345 C .30371095 .55078127 .29248048 .5913086 .27001954 .62060549 C .25341798 .64208987 .23209636 .65283206 .20605469 .65283206 M .11621094 .21582031 C .10091146 .19921875 .08935547 .18375652 .08154297 .1694336 C .07373047 .15511067 .06982422 .14192708 .06982422 .12988281 C .06982422 .11425781 .07926432 .10058594 .09814453 .08886719 C .13069661 .0686849 .17773438 .05859375 .23925781 .05859375 C .29785157 .05859375 .34098307 .069010417 .36865235 .08984375 C .39664714 .11035156 .41064454 .13232422 .41064454 .15576172 C .41064454 .1726888 .40234376 .18473308 .3857422 .19189453 C .3688151 .19905599 .33528648 .20328777 .28515626 .20458985 C .21191406 .20654297 .15559896 .21028646 .11621094 .21582031 Z "/>
</symbol>
<symbol id="font_0_48">
<path d="M .06933594 .29248048 C .069010417 .22607422 .085123699 .17399089 .11767578 .13623047 C .15022786 .098470058 .18847656 .079589847 .23242188 .079589847 C .26171876 .079589847 .28710938 .0875651 .30859376 .103515628 C .33040367 .119791667 .3486328 .14746094 .36328126 .18652344 L .37841798 .17675781 C .37158204 .13216146 .35172526 .09147135 .31884767 .0546875 C .28597007 .018229166 .24479167 0 .1953125 0 C .14160156 0 .09554037 .020833334 .057128908 .0625 C .019042969 .10449219 0 .1608073 0 .23144531 C 0 .30794273 .01953125 .36751304 .05859375 .41015626 C .09798177 .453125 .14729817 .47460938 .20654297 .47460938 C .2566732 .47460938 .29785157 .4580078 .33007813 .4248047 C .3623047 .3919271 .37841798 .347819 .37841798 .29248048 L .06933594 .29248048 M .06933594 .32080079 L .2763672 .32080079 C .2747396 .34944663 .27132163 .3696289 .26611329 .38134767 C .25797526 .3995768 .24576824 .41389976 .22949219 .4243164 C .21354167 .43473307 .19677735 .4399414 .17919922 .4399414 C .15218099 .4399414 .12792969 .42936198 .10644531 .40820313 C .08528646 .38736979 .072916667 .3582357 .06933594 .32080079 Z "/>
</symbol>
<symbol id="font_0_51">
<path d="M .15576172 .36572267 C .20817058 .4288737 .25813804 .46044923 .30566407 .46044923 C .33007813 .46044923 .35107423 .4542643 .36865235 .44189454 C .38623048 .42985026 .40022788 .40983073 .41064454 .38183595 C .417806 .3623047 .42138673 .33235679 .42138673 .2919922 L .42138673 .10107422 C .42138673 .072753909 .42366538 .053548177 .42822267 .04345703 C .43180339 .03531901 .4375 .028971354 .4453125 .024414063 C .45345054 .019856772 .46826173 .017578125 .4897461 .017578125 L .4897461 0 L .2685547 0 L .2685547 .017578125 L .27783204 .017578125 C .29866538 .017578125 .31315104 .020670573 .32128907 .026855469 C .3297526 .033365888 .33561198 .04280599 .3388672 .05517578 C .34016929 .060058595 .3408203 .07535807 .3408203 .10107422 L .3408203 .2841797 C .3408203 .32486979 .33544923 .35432945 .32470704 .3725586 C .31429038 .39111329 .29654948 .40039063 .27148438 .40039063 C .23274739 .40039063 .19417317 .37923179 .15576172 .33691407 L .15576172 .10107422 C .15576172 .07080078 .15755208 .052083333 .16113281 .044921876 C .16569011 .03548177 .171875 .028483073 .1796875 .023925782 C .18782552 .01969401 .20410156 .017578125 .22851563 .017578125 L .22851563 0 L .0073242189 0 L .0073242189 .017578125 L .017089844 .017578125 C .0398763 .017578125 .05517578 .02327474 .06298828 .03466797 C .071126308 .04638672 .07519531 .06852213 .07519531 .10107422 L .07519531 .26708985 C .07519531 .32080079 .07389323 .35351563 .07128906 .36523438 C .069010417 .37695313 .06526693 .38492839 .060058595 .38916017 C .05517578 .39339195 .048502607 .3955078 .040039064 .3955078 C .030924479 .3955078 .020019532 .3930664 .0073242189 .3881836 L 0 .40576173 L .13476563 .46044923 L .15576172 .46044923 L .15576172 .36572267 Z "/>
</symbol>
<symbol id="font_0_57">
<path d="M .15136719 .6015625 L .15136719 .45458985 L .25585938 .45458985 L .25585938 .42041017 L .15136719 .42041017 L .15136719 .1303711 C .15136719 .10139974 .1554362 .08186849 .16357422 .071777347 C .17203777 .0616862 .18277996 .056640626 .19580078 .056640626 C .20654297 .056640626 .21695964 .059895833 .22705078 .06640625 C .23714192 .07324219 .24495442 .08317057 .25048829 .096191409 L .26953126 .096191409 C .25813804 .06429037 .24202474 .040201826 .2211914 .023925782 C .20035808 .007975261 .1788737 0 .15673828 0 C .14176433 0 .12711589 .0040690104 .11279297 .012207031 C .098470058 .020670573 .087890628 .032552083 .08105469 .047851564 C .07421875 .06347656 .07080078 .087402347 .07080078 .119628909 L .07080078 .42041017 L 0 .42041017 L 0 .43652345 C .017903647 .4436849 .036132814 .45572917 .0546875 .47265626 C .07356771 .48990885 .09033203 .5102539 .10498047 .5336914 C .112467449 .5460612 .12288412 .5686849 .13623047 .6015625 L .15136719 .6015625 Z "/>
</symbol>
<symbol id="font_0_52">
<path d="M .2163086 .4741211 C .28401695 .4741211 .3383789 .44840495 .37939454 .39697267 C .41422526 .35302735 .43164063 .30257163 .43164063 .24560547 C .43164063 .2055664 .42203776 .16503906 .40283204 .12402344 C .3836263 .08300781 .35709635 .052083333 .3232422 .03125 C .28971354 .010416667 .25227867 0 .2109375 0 C .14355469 0 .09000651 .026855469 .05029297 .080566409 C .016764323 .1258138 0 .17659505 0 .23291016 C 0 .27392579 .0100911459 .31461589 .030273438 .35498048 C .05078125 .39567057 .07763672 .4256185 .110839847 .44482423 C .14404297 .46435548 .17919922 .4741211 .2163086 .4741211 M .20117188 .4423828 C .18391927 .4423828 .1665039 .43717448 .14892578 .4267578 C .13167317 .41666667 .11767578 .39876304 .106933597 .37304688 C .096191409 .34733073 .09082031 .31429038 .09082031 .27392579 C .09082031 .20882161 .10367838 .15266927 .12939453 .10546875 C .1554362 .05826823 .18961589 .03466797 .2319336 .03466797 C .26350913 .03466797 .28955079 .0476888 .3100586 .07373047 C .3305664 .09977213 .3408203 .14453125 .3408203 .20800781 C .3408203 .2874349 .32373048 .3499349 .28955079 .3955078 C .2664388 .4267578 .23697917 .4423828 .20117188 .4423828 Z "/>
</symbol>
<symbol id="font_0_4f">
<path d="M .15527344 .69433596 L .15527344 .10107422 C .15527344 .07307943 .15722656 .05452474 .16113281 .045410158 C .16536458 .036295576 .17171224 .029296875 .18017578 .024414063 C .18863933 .019856772 .20442708 .017578125 .22753906 .017578125 L .22753906 0 L .008300781 0 L .008300781 .017578125 C .028808594 .017578125 .04280599 .01969401 .05029297 .023925782 C .05777995 .028157553 .06363932 .03515625 .067871097 .044921876 C .07210287 .0546875 .07421875 .073404949 .07421875 .10107422 L .07421875 .5073242 C .07421875 .55777999 .07307943 .5887044 .07080078 .60009768 C .06852213 .6118164 .06477865 .6197917 .059570314 .62402346 C .0546875 .6282552 .048339845 .6303711 .040527345 .6303711 C .0320638 .6303711 .021321616 .6277669 .008300781 .6225586 L 0 .63964846 L .13330078 .69433596 L .15527344 .69433596 Z "/>
</symbol>
<symbol id="font_0_5c">
<path d="M 0 .66308596 L .2084961 .66308596 L .2084961 .64501956 L .19824219 .64501956 C .18359375 .64501956 .17252605 .64176437 .16503906 .6352539 C .15787761 .62906906 .15429688 .62125656 .15429688 .6118164 C .15429688 .5991211 .15966797 .58154299 .17041016 .55908206 L .27929688 .3334961 L .37939454 .5805664 C .38492839 .5939128 .3876953 .6070964 .3876953 .6201172 C .3876953 .62597659 .386556 .6303711 .38427735 .6333008 C .3816732 .63688156 .37760417 .63964846 .3720703 .64160159 C .36653648 .6438802 .35677085 .64501956 .34277345 .64501956 L .34277345 .66308596 L .48828126 .66308596 L .48828126 .64501956 C .47623698 .64371749 .46695964 .6411133 .46044923 .63720706 C .4539388 .6333008 .44677735 .62597659 .43896485 .6152344 C .43603517 .61067709 .4305013 .59814456 .42236329 .5776367 L .24023438 .13134766 C .22265625 .08805338 .19954427 .055338544 .17089844 .033203126 C .14257813 .011067708 .115234378 0 .08886719 0 C .06966146 0 .0538737 .005533854 .041503908 .016601563 C .029134116 .027669272 .022949219 .040364583 .022949219 .0546875 C .022949219 .068359378 .02734375 .079427089 .036132814 .087890628 C .045247396 .09602865 .057617189 .100097659 .07324219 .100097659 C .083984378 .100097659 .09863281 .09651693 .1171875 .08935547 C .13020833 .084472659 .13834636 .08203125 .14160156 .08203125 C .15136719 .08203125 .16194661 .08707682 .17333985 .09716797 C .1850586 .10725912 .19677735 .12679036 .2084961 .15576172 L .24023438 .23339844 L .079589847 .5708008 C .07470703 .5808919 .06689453 .5934245 .056152345 .60839846 C .048014326 .6197917 .041341146 .6274414 .036132814 .63134768 C .028645834 .63655599 .016601563 .6411133 0 .64501956 L 0 .66308596 Z "/>
</symbol>
<symbol id="font_0_49">
<path d="M .16748047 .41210938 L .16748047 .11816406 C .16748047 .0764974 .17203777 .050130208 .18115235 .0390625 C .19319661 .024739584 .20930989 .017578125 .22949219 .017578125 L .27001954 .017578125 L .27001954 0 L .0029296876 0 L .0029296876 .017578125 L .022949219 .017578125 C .03597005 .017578125 .047851564 .020833334 .05859375 .02734375 C .06933594 .033854169 .076660159 .04264323 .080566409 .053710939 C .08479818 .06477865 .08691406 .08626302 .08691406 .11816406 L .08691406 .41210938 L 0 .41210938 L 0 .44726563 L .08691406 .44726563 L .08691406 .4765625 C .08691406 .5211589 .09407552 .55891928 .10839844 .58984377 C .12272135 .62076827 .14453125 .6456706 .17382813 .6645508 C .20345052 .68375656 .23665364 .6933594 .2734375 .6933594 C .3076172 .6933594 .33902995 .6822917 .36767579 .66015627 C .386556 .6455078 .3959961 .62906906 .3959961 .61083987 C .3959961 .6010742 .3917643 .5917969 .38330079 .5830078 C .37483726 .57454428 .36572267 .5703125 .35595704 .5703125 C .34847007 .5703125 .34049479 .5729167 .33203126 .578125 C .32389323 .5836589 .3138021 .59521487 .3017578 .61279299 C .28971354 .6306966 .27864585 .6427409 .2685547 .6489258 C .25846354 .65511068 .24723308 .6582031 .23486328 .6582031 C .21988933 .6582031 .20719402 .6541341 .19677735 .6459961 C .18636067 .6381836 .1788737 .6258138 .1743164 .6088867 C .16975911 .59228518 .16748047 .5491536 .16748047 .4794922 L .16748047 .44726563 L .28271485 .44726563 L .28271485 .41210938 L .16748047 .41210938 Z "/>
</symbol>
<symbol id="font_0_45">
<path d="M .15625 .38378907 C .19954427 .4440104 .24625652 .4741211 .29638673 .4741211 C .34228517 .4741211 .38232423 .4544271 .4165039 .41503907 C .4506836 .37597657 .46777345 .32242839 .46777345 .25439454 C .46777345 .17496746 .44140626 .1110026 .38867188 .0625 C .34342448 .020833334 .29296876 0 .23730469 0 C .21126302 0 .18473308 .0047200524 .15771485 .014160156 C .13102214 .02360026 .10367838 .037760419 .075683597 .056640626 L .075683597 .52001956 C .075683597 .5708008 .07438151 .6020508 .071777347 .61376956 C .069498699 .6254883 .06575521 .63346359 .060546876 .6376953 C .055338544 .64192709 .048828126 .64404299 .041015626 .64404299 C .031901044 .64404299 .020507813 .6414388 .0068359377 .63623049 L 0 .6533203 L .13427735 .7080078 L .15625 .7080078 L .15625 .38378907 M .15625 .35253907 L .15625 .08496094 C .17285156 .0686849 .1899414 .056315107 .20751953 .047851564 C .22542317 .039713544 .24365235 .03564453 .26220704 .03564453 C .29182945 .03564453 .31933595 .051920576 .34472657 .084472659 C .37044273 .11702474 .38330079 .16438802 .38330079 .2265625 C .38330079 .28385417 .37044273 .32779948 .34472657 .35839845 C .31933595 .3893229 .2903646 .40478517 .2578125 .40478517 C .24055989 .40478517 .2233073 .40039063 .20605469 .39160157 C .19303386 .38509117 .1764323 .3720703 .15625 .35253907 Z "/>
</symbol>
<symbol id="font_0_4e">
<path d="M .15527344 .69433596 L .15527344 .24902344 L .26904298 .35302735 C .2931315 .37516276 .3071289 .38916017 .31103517 .39501954 C .3136393 .39892579 .3149414 .40283204 .3149414 .40673829 C .3149414 .4132487 .31217448 .41878257 .30664063 .42333985 C .30143229 .42822267 .29264323 .4309896 .28027345 .43164063 L .28027345 .44726563 L .47460938 .44726563 L .47460938 .43164063 C .44791667 .4309896 .4256185 .42692057 .40771485 .4194336 C .39013673 .41194663 .37076823 .39860026 .34960938 .37939454 L .23486328 .2734375 L .34960938 .12841797 C .3815104 .088378909 .40299479 .06298828 .4140625 .052246095 C .4296875 .036946615 .44335938 .027018229 .45507813 .022460938 C .46321617 .019205729 .4773763 .017578125 .4975586 .017578125 L .4975586 0 L .28027345 0 L .28027345 .017578125 C .29264323 .017903647 .300944 .01969401 .30517579 .022949219 C .30973307 .026529948 .31201173 .03141276 .31201173 .037597658 C .31201173 .045084638 .3055013 .057128908 .29248048 .07373047 L .15527344 .24902344 L .15527344 .10058594 C .15527344 .071614589 .15722656 .052571615 .16113281 .04345703 C .16536458 .03434245 .17122396 .027832032 .17871094 .023925782 C .18619792 .020019532 .20247396 .017903647 .22753906 .017578125 L .22753906 0 L 0 0 L 0 .017578125 C .022786459 .017578125 .0398763 .020345053 .05126953 .025878907 C .05810547 .029459635 .063313808 .03499349 .06689453 .04248047 C .071777347 .053222658 .07421875 .071777347 .07421875 .09814453 L .07421875 .5053711 C .07421875 .5571289 .07307943 .5887044 .07080078 .60009768 C .06852213 .6118164 .06477865 .6197917 .059570314 .62402346 C .05436198 .62858077 .047526044 .6308594 .0390625 .6308594 C .032226564 .6308594 .021972657 .62809249 .008300781 .6225586 L 0 .63964846 L .1328125 .69433596 L .15527344 .69433596 Z "/>
</symbol>
<use xlink:href="#font_0_37" transform="matrix(10,0,0,-10,162.65273,60.102724)" fill="#231f20"/>
<use xlink:href="#font_0_4b" transform="matrix(10,0,0,-10,168.54647,60.102724)" fill="#231f20"/>
<use xlink:href="#font_0_4c" transform="matrix(10,0,0,-10,173.79895,60.102724)" fill="#231f20"/>
<use xlink:href="#font_0_56" transform="matrix(10,0,0,-10,176.79726,60.23944)" fill="#231f20"/>
<use xlink:href="#font_0_3" transform="matrix(10,0,0,-10,180.22197,60.102724)" fill="#231f20"/>
<use xlink:href="#font_0_53" transform="matrix(10,0,0,-10,183.29779,62.241395)" fill="#231f20"/>
<use xlink:href="#font_0_44" transform="matrix(10,0,0,-10,188.71141,60.195497)" fill="#231f20"/>
<use xlink:href="#font_0_4a" transform="matrix(10,0,0,-10,193.11582,62.260927)" fill="#231f20"/>
<use xlink:href="#font_0_48" transform="matrix(10,0,0,-10,198.21205,60.23944)" fill="#231f20"/>
<use xlink:href="#font_0_3" transform="matrix(10,0,0,-10,202.30396,60.102724)" fill="#231f20"/>
<use xlink:href="#font_0_4c" transform="matrix(10,0,0,-10,205.70693,60.102724)" fill="#231f20"/>
<use xlink:href="#font_0_51" transform="matrix(10,0,0,-10,208.27555,60.102724)" fill="#231f20"/>
<use xlink:href="#font_0_57" transform="matrix(10,0,0,-10,213.3376,60.175966)" fill="#231f20"/>
<use xlink:href="#font_0_48" transform="matrix(10,0,0,-10,216.41403,60.23944)" fill="#231f20"/>
<use xlink:href="#font_0_51" transform="matrix(10,0,0,-10,220.56453,60.102724)" fill="#231f20"/>
<use xlink:href="#font_0_57" transform="matrix(10,0,0,-10,225.62659,60.175966)" fill="#231f20"/>
<use xlink:href="#font_0_4c" transform="matrix(10,0,0,-10,228.6249,60.102724)" fill="#231f20"/>
<use xlink:href="#font_0_52" transform="matrix(10,0,0,-10,231.47185,60.23944)" fill="#231f20"/>
<use xlink:href="#font_0_51" transform="matrix(10,0,0,-10,236.21654,60.102724)" fill="#231f20"/>
<use xlink:href="#font_0_44" transform="matrix(10,0,0,-10,241.5374,60.195497)" fill="#231f20"/>
<use xlink:href="#font_0_4f" transform="matrix(10,0,0,-10,245.94182,60.102724)" fill="#231f20"/>
<use xlink:href="#font_0_4f" transform="matrix(10,0,0,-10,248.74483,60.102724)" fill="#231f20"/>
<use xlink:href="#font_0_5c" transform="matrix(10,0,0,-10,251.30858,62.260927)" fill="#231f20"/>
<use xlink:href="#font_0_3" transform="matrix(10,0,0,-10,256.27299,60.102724)" fill="#231f20"/>
<use xlink:href="#font_0_4f" transform="matrix(10,0,0,-10,259.68086,60.102724)" fill="#231f20"/>
<use xlink:href="#font_0_48" transform="matrix(10,0,0,-10,262.5571,60.23944)" fill="#231f20"/>
<use xlink:href="#font_0_49" transform="matrix(10,0,0,-10,267.03477,60.102724)" fill="#231f20"/>
<use xlink:href="#font_0_57" transform="matrix(10,0,0,-10,270.09968,60.175966)" fill="#231f20"/>
<use xlink:href="#font_0_3" transform="matrix(10,0,0,-10,272.80503,60.102724)" fill="#231f20"/>
<use xlink:href="#font_0_45" transform="matrix(10,0,0,-10,275.89064,60.23944)" fill="#231f20"/>
<use xlink:href="#font_0_4f" transform="matrix(10,0,0,-10,281.2359,60.102724)" fill="#231f20"/>
<use xlink:href="#font_0_44" transform="matrix(10,0,0,-10,284.0975,60.195497)" fill="#231f20"/>
<use xlink:href="#font_0_51" transform="matrix(10,0,0,-10,288.26268,60.102724)" fill="#231f20"/>
<use xlink:href="#font_0_4e" transform="matrix(10,0,0,-10,293.3101,60.102724)" fill="#231f20"/>
</g>
</svg>
